<?xml version="1.0" encoding="UTF-8" standalone="no"?>
<svg width="200px" height="40px" viewBox="0 0 200 40" version="1.1" xmlns="http://www.w3.org/2000/svg" xmlns:xlink="http://www.w3.org/1999/xlink">
    <!-- Generator: Sketch 40.3 (33839) - http://www.bohemiancoding.com/sketch -->
    <title>Logo</title>
    <desc>Created with Sketch.</desc>
    <defs>
        <polygon id="path-1" points="38.9633573 0.365112322 0 0.365112322 0 39.2902066 38.9633573 39.2902066 38.9633573 0.365112322"></polygon>
        <polygon id="path-3" points="0 39.4045318 199.661391 39.4045318 199.661391 0.47934169 0 0.47934169"></polygon>
    </defs>
    <g id="Symbols" stroke="none" stroke-width="1" fill="none" fill-rule="evenodd">
        <g id="Navbar" transform="translate(-12.000000, -12.000000)">
            <g id="Group">
                <g id="Logo" transform="translate(12.000000, 12.000000)">
                    <g>
                        <g id="Group-3" transform="translate(0.000000, 0.114229)">
                            <mask id="mask-2" fill="white">
                                <use xlink:href="#path-1"></use>
                            </mask>
                            <g id="Clip-2"></g>
                            <path d="M34.7868585,19.6872206 C34.7868585,15.9201431 35.9873381,11.7285386 38.9633573,8.81003576 L38.9633573,0.365016492 L-0.000191846523,0.365016492 L-0.000191846523,39.2902066 L38.9633573,39.2902066 L38.9633573,30.5543433 C36.1317026,27.6976508 34.7868585,23.597564 34.7868585,19.6872206" id="Fill-1" fill="#FFFFFF" mask="url(#mask-2)"></path>
                        </g>
                        <mask id="mask-4" fill="white">
                            <use xlink:href="#path-3"></use>
                        </mask>
                        <g id="Clip-5"></g>
                        <path d="M27.0091127,32.4975841 L32.2786571,32.4975841 L32.2786571,7.38628936 L27.0091127,7.38628936 L27.0091127,32.4975841 Z M12.8748201,18.9103267 L12.8748201,7.38628936 L14.5482014,7.38628936 C15.5453237,11.192178 16.5419664,14.9621305 17.6100719,18.7680192 C18.6781775,22.6448221 18.9275779,23.6055179 19.4613909,26.486647 C19.9956835,23.8187396 20.3160671,22.4670574 21.4196643,18.2701823 C22.3453237,14.6420583 23.2709832,11.0144134 24.2321343,7.38628936 L26.0834532,7.38628936 L26.0834532,18.6616479 L22.3098321,32.4975841 L16.6489209,32.4975841 L12.8748201,18.9103267 Z M6.64460432,32.4975841 L11.9496403,32.4975841 L11.9496403,7.38628936 L6.64460432,7.38628936 L6.64460432,32.4975841 Z" id="Fill-4" fill="#EC1D24" mask="url(#mask-4)"></path>
                        <path d="M75.8848921,12.0493775 L82.5055156,12.0493775 L82.5055156,7.39108087 L75.8848921,7.39108087 L75.8848921,12.0493775 Z M69.2642686,32.4961467 L74.9597122,32.4961467 L74.9597122,7.39108087 L69.2642686,7.39108087 L69.2642686,32.4961467 Z M61.7894484,12.0493775 L68.3745803,12.0493775 L68.3745803,7.39108087 L61.7894484,7.39108087 L61.7894484,12.0493775 Z" id="Fill-6" fill="#FFFFFF" mask="url(#mask-4)"></path>
                        <path d="M91.4307914,22.0772209 L91.4307914,15.8899566 L99.3679616,7.39127253 L106.700336,7.39127253 L95.2034532,18.7701274 L107.27012,32.4958592 L100.258129,32.4958592 L91.4307914,22.0772209 Z M84.8456595,32.4963383 L90.5406235,32.4963383 L90.5406235,7.39127253 L84.8456595,7.39127253 L84.8456595,32.4963383 Z" id="Fill-7" fill="#FFFFFF" mask="url(#mask-4)"></path>
                        <path d="M115.883453,23.2506594 L115.883453,18.6992132 L118.481535,18.6992132 C120.439329,18.6992132 123.607194,18.6637561 123.607194,15.178898 C123.607194,12.0495691 120.866667,12.1204833 119.051319,12.1204833 L115.883453,12.1204833 L115.883453,7.39127253 L119.905516,7.39127253 C122.326139,7.42672963 124.6753,7.46218673 126.632614,8.88478317 C129.124221,10.7338231 129.124221,13.5785369 129.124221,14.3250526 C129.124221,18.2368334 126.739089,20.1213305 124.639808,20.4059456 C125.351559,20.6191674 126.490168,20.9392396 127.308873,22.3972931 C127.842686,23.3575098 127.914149,23.7839533 128.518945,27.5534266 C128.910312,29.9712177 129.409113,31.1805923 130.334293,32.4958592 L124.354436,32.4958592 C123.927578,31.7493434 123.464748,31.0382848 123.108873,29.0114802 C122.930935,28.1221777 122.859952,27.161961 122.682014,26.2731377 C122.11223,23.4638811 120.795204,23.2506594 118.552998,23.2506594 L115.883453,23.2506594 Z M109.298321,32.4963383 L114.957314,32.4963383 L114.957314,7.39127253 L109.298321,7.39127253 L109.298321,32.4963383 Z" id="Fill-8" fill="#FFFFFF" mask="url(#mask-4)"></path>
                        <path d="M131.998897,32.4960508 L140.648297,7.39098504 L147.090983,7.39098504 L155.988825,32.4960508 L149.618082,32.4960508 L147.980671,27.1621527 L140.933189,27.1621527 L142.285228,22.5747703 L146.592182,22.5747703 L144.777314,16.6012069 C144.349976,14.8585382 144.278513,14.5739231 143.922638,12.903127 C143.602254,14.538466 143.531271,14.8585382 143.104412,16.4588993 L138.37012,32.4960508 L131.998897,32.4960508 Z" id="Fill-9" fill="#FFFFFF" mask="url(#mask-4)"></path>
                        <path d="M165.207674,21.9352009 L175.565468,21.9352009 L175.565468,17.4546689 L165.207674,17.4546689 L165.207674,21.9352009 Z M165.207674,12.0493775 L177.131415,12.0493775 L177.131415,7.39108087 L165.207674,7.39108087 L165.207674,12.0493775 Z M158.623022,32.4961467 L164.282014,32.4961467 L164.282014,7.39108087 L158.623022,7.39108087 L158.623022,32.4961467 Z" id="Fill-10" fill="#FFFFFF" mask="url(#mask-4)"></path>
                        <path d="M193.041247,12.0493775 L199.661871,12.0493775 L199.661871,7.39108087 L193.041247,7.39108087 L193.041247,12.0493775 Z M186.420624,32.4961467 L192.116067,32.4961467 L192.116067,7.39108087 L186.420624,7.39108087 L186.420624,32.4961467 Z M178.945803,12.0493775 L185.530935,12.0493775 L185.530935,7.39108087 L178.945803,7.39108087 L178.945803,12.0493775 Z" id="Fill-11" fill="#FFFFFF" mask="url(#mask-4)"></path>
                        <path d="M49.1815827,6.67997431 L49.1815827,11.4451213 C53.0616787,11.9429582 55.2683933,14.787672 55.2683933,19.836955 C55.2683933,21.8283025 55.0189928,24.1042651 53.417554,26.0242193 C52.207482,27.5177299 50.8189928,27.9087164 49.1815827,28.1224173 L49.1815827,32.9584785 C56.6564029,32.567013 61.1767866,27.1976577 61.1767866,19.7660408 C61.1767866,15.4278164 59.3619185,7.35557585 49.1815827,6.67997431" id="Fill-12" fill="#FFFFFF" mask="url(#mask-4)"></path>
                        <path d="M38.9632614,11.0756488 C37.0730935,13.5015854 36.2256115,16.6510385 36.2256115,19.8014499 C36.2256115,22.9159251 37.1268106,26.0442957 38.9632614,28.4702323 C40.9431175,31.0859123 44.0102638,32.8846415 48.2208153,32.9584306 L48.2208153,28.1223694 C46.5834053,27.9446047 45.2658993,27.517682 44.0917986,26.0596285 C42.204988,23.7482087 42.1694964,20.8325808 42.1694964,19.7659928 C42.1694964,16.3520489 43.4155396,12.0492816 48.2208153,11.4450734 L48.2208153,6.67992639 C43.9061871,6.87781535 40.8917986,8.59988056 38.9632614,11.0756488" id="Fill-13" fill="#FFFFFF" mask="url(#mask-4)"></path>
                    </g>
                </g>
            </g>
        </g>
    </g>
</svg>